<svg xmlns="http://www.w3.org/2000/svg" width="45" height="44" viewBox="0 0 45 44" fill="none">
  <path fill-rule="evenodd" clip-rule="evenodd" d="M22.4027 4.0498C15.3615 4.0498 9.6666 9.60555 9.6666 16.4748C9.6666 23.8766 17.7085 34.0828 21.0199 37.97C21.7477 38.822 23.0759 38.822 23.8037 37.97C27.0969 34.0828 35.1388 23.8766 35.1388 16.4748C35.1388 9.60555 29.444 4.0498 22.4027 4.0498ZM22.4027 20.9123C19.8919 20.9123 17.8541 18.9243 17.8541 16.4748C17.8541 14.0253 19.8919 12.0373 22.4027 12.0373C24.9135 12.0373 26.9513 14.0253 26.9513 16.4748C26.9513 18.9243 24.9135 20.9123 22.4027 20.9123Z" fill="#3998E8"/>
</svg>