<svg width="15" height="19" viewBox="0 0 15 19" fill="none" xmlns="http://www.w3.org/2000/svg">
<path id="Icon" fill-rule="evenodd" clip-rule="evenodd" d="M0.949933 2.3006C1.61047 1.13946 2.5161 0.5 3.5 0.5C4.4839 0.5 5.38953 1.13946 6.05007 2.3006C6.66263 3.37736 7 4.79799 7 6.30078C7 7.50752 6.76737 8.67794 6.32733 9.68548L6.19337 9.99219H0.806633L0.6727 9.68548C0.232633 8.67794 0 7.50752 0 6.30078C0 4.79799 0.337367 3.37736 0.949933 2.3006ZM5.98312 6.82812C5.99432 6.65375 6.00002 6.47779 6.00002 6.30078C6.00002 6.12286 5.99435 5.94693 5.98369 5.77344H1.01632C1.00568 5.94693 1.00002 6.12286 1.00002 6.30078C1.00002 6.47779 1.00572 6.65375 1.01692 6.82812H5.98312ZM1.14886 4.71875C1.22112 4.34444 1.31789 3.99035 1.43542 3.66406H5.56472C5.68226 3.99035 5.77899 4.34444 5.85129 4.71875H1.14886ZM5.05029 2.60938C4.62069 1.95273 4.07952 1.55469 3.49979 1.55469C2.92006 1.55469 2.37889 1.95273 1.94929 2.60938H5.05029ZM1.45658 8.9375C1.33104 8.60271 1.23088 8.24914 1.15644 7.88281H5.84338C5.76894 8.24914 5.66878 8.60271 5.54324 8.9375H1.45658ZM1.00002 13.6836C1.00002 15.1375 2.12152 16.3203 3.50002 16.3203C4.87852 16.3203 6.00002 15.1375 6.00002 13.6836V11.0469H1.00002V13.6836ZM2.00005 12.1016H5.00005V13.6836C5.00005 14.5559 4.32715 15.2656 3.50005 15.2656C2.67295 15.2656 2.00005 14.5559 2.00005 13.6836V12.1016ZM11.5002 18.5C10.1217 18.5 9.00016 17.3172 9.00016 15.8633V13.2266H14.0002V15.8633C14.0002 17.3172 12.8787 18.5 11.5002 18.5ZM13.0001 14.2812H10.0001V15.8633C10.0001 16.7356 10.673 17.4453 11.5001 17.4453C12.3272 17.4453 13.0001 16.7356 13.0001 15.8633V14.2812ZM11.5001 2.67969C12.484 2.67969 13.3897 3.31914 14.0502 4.48029C14.6628 5.55705 15.0001 6.97768 15.0001 8.48047C15.0001 9.68721 14.7675 10.8576 14.3275 11.8652L14.1935 12.1719H8.80681L8.67284 11.8652C8.23277 10.8576 8.00014 9.68721 8.00014 8.48047C8.00014 6.97768 8.33751 5.55705 8.95007 4.48029C9.61061 3.31914 10.5162 2.67969 11.5001 2.67969ZM13.9829 9.00781C13.9941 8.83344 13.9998 8.65748 13.9998 8.48047C13.9998 8.30254 13.9941 8.12662 13.9835 7.95312H9.01609C9.00546 8.12662 8.99979 8.30254 8.99979 8.48047C8.99979 8.65748 9.00549 8.83344 9.01669 9.00781H13.9829ZM9.14863 6.89844C9.2209 6.52413 9.31766 6.17004 9.4352 5.84375H13.5645C13.682 6.17004 13.7788 6.52413 13.8511 6.89844H9.14863ZM13.05 4.78906C12.6204 4.13241 12.0793 3.73438 11.4995 3.73438C10.9198 3.73438 10.3786 4.13241 9.94906 4.78906H13.05ZM9.45635 11.1172C9.33081 10.7824 9.23065 10.4288 9.15621 10.0625H13.8431C13.7687 10.4288 13.6685 10.7824 13.543 11.1172H9.45635Z" fill="white"/>
</svg>
