<svg width="22" height="20" viewBox="0 0 22 20" fill="none" xmlns="http://www.w3.org/2000/svg">
<g id="Vector (Stroke)">
<path fill-rule="evenodd" clip-rule="evenodd" d="M8.62717 0.0695841C8.22728 -0.0205274 7.81411 -0.0228162 7.41475 0.0609604C6.9583 0.156714 6.54596 0.397777 6.0776 0.67159L5.99783 0.718195C5.99093 0.721992 5.98407 0.725875 5.97726 0.729843L5.51162 1.00127L5.50128 1.00746L5.40943 1.06089C4.94455 1.33108 4.53413 1.56962 4.22622 1.91769C3.9556 2.22361 3.75356 2.58364 3.63273 2.97361C3.49426 3.4205 3.5028 3.89899 3.51256 4.44555L3.51443 4.55257L3.52125 4.95982C3.52179 4.99158 3.52252 5.0177 3.523 5.03492L3.52322 5.04294L3.52354 5.05596C3.52072 5.20562 3.48183 5.35523 3.40918 5.49131C3.40369 5.5016 3.39713 5.51322 3.36352 5.57165L3.33441 5.62234C3.32302 5.64221 3.32097 5.64579 3.3175 5.6514C3.23681 5.78199 3.12645 5.89087 2.99548 5.9693C2.98843 5.97352 2.98257 5.97678 2.94891 5.9955L2.91462 6.01458L2.56939 6.20673L2.47139 6.26116C1.99493 6.52558 1.57627 6.75792 1.25962 7.10297C0.982168 7.40532 0.772784 7.76371 0.645032 8.15372C0.498644 8.60061 0.500264 9.08174 0.502115 9.63161L0.502437 9.73908L0.503656 10.2782L0.503819 10.3784C0.50454 10.9288 0.505167 11.4075 0.652358 11.8528C0.77997 12.2388 0.987599 12.5953 1.26442 12.8968C1.57926 13.2398 1.99416 13.4709 2.46705 13.7344L2.56429 13.7886L2.90645 13.9798L2.94046 13.9988C2.97934 14.0205 2.98583 14.0241 2.99369 14.0289C3.1236 14.1074 3.23321 14.2162 3.31314 14.3459C3.31979 14.3567 3.32707 14.3692 3.36332 14.4328L3.38951 14.4787C3.40568 14.507 3.40859 14.5121 3.4123 14.5192C3.48161 14.651 3.51945 14.7988 3.52204 14.9509C3.52226 14.964 3.52218 14.9796 3.521 15.05L3.51443 15.4408L3.51256 15.5474C3.50274 16.0963 3.49414 16.5767 3.63348 17.025C3.75513 17.4164 3.95853 17.7769 4.23039 18.0829C4.54061 18.4321 4.95436 18.6708 5.42452 18.9421L5.52258 18.9988L5.99399 19.2716L6.09111 19.3279C6.55964 19.5999 6.97148 19.8389 7.42676 19.9336C7.82519 20.0164 8.23699 20.0132 8.63474 19.9236C9.08817 19.8213 9.49627 19.5752 9.95969 19.2957L10.0565 19.2374L10.3944 19.0342C10.45 19.0007 10.464 18.9926 10.4751 18.9864C10.6083 18.912 10.7561 18.871 10.9076 18.8661C10.9195 18.8657 10.9329 18.8656 11.0011 18.8656C11.0694 18.8656 11.0828 18.8657 11.0947 18.8661C11.2474 18.871 11.3966 18.9125 11.5292 18.9868C11.5361 18.9907 11.5449 18.9958 11.5907 19.0235L11.9499 19.24L12.046 19.2981C12.512 19.5799 12.9213 19.8273 13.3769 19.93C13.775 20.0197 14.1883 20.0236 14.5895 19.9394C15.0459 19.8437 15.4588 19.6023 15.9268 19.3287L16.0247 19.2715L16.4973 18.996L16.5944 18.9395C17.0596 18.6692 17.4703 18.4304 17.7783 18.0823C18.0486 17.7768 18.251 17.4169 18.372 17.0265C18.5093 16.5831 18.5008 16.1082 18.4911 15.5734L18.4892 15.4616L18.4821 15.0402C18.4811 14.9822 18.4812 14.9632 18.4814 14.9478C18.4837 14.7941 18.5226 14.6432 18.5945 14.5084C18.6 14.4982 18.6067 14.4864 18.6402 14.4281L18.6408 14.3194L18.6872 14.3483C18.7679 14.2178 18.8785 14.1087 19.0095 14.0302C19.0184 14.0249 19.0286 14.0191 19.0752 13.9931L19.0896 13.9853L19.4348 13.7931L19.5339 13.7381C20.0097 13.4741 20.4287 13.2415 20.7451 12.8967C21.0226 12.5944 21.2318 12.2363 21.3595 11.8463C21.5049 11.4026 21.5032 10.9244 21.5013 10.385L21.5009 10.2723L21.4997 9.72162L21.4995 9.60904C21.499 9.06646 21.4985 8.58957 21.3522 8.14705C21.2241 7.75945 21.0151 7.40332 20.7394 7.10297C20.425 6.7605 20.01 6.52931 19.5388 6.26683L19.4404 6.21199L19.4287 6.20557L19.0891 6.01581C19.0354 5.9858 19.0203 5.97703 19.0083 5.96982C18.8774 5.89102 18.7677 5.7826 18.6878 5.65354C18.6849 5.6488 18.6834 5.64622 18.6761 5.63336L18.6411 5.57235C18.6071 5.51315 18.6003 5.50116 18.5948 5.49078C18.5226 5.35539 18.4837 5.2049 18.4814 5.05246C18.4812 5.03678 18.4811 5.01712 18.4821 4.95856L18.4889 4.55074L18.4909 4.43793C18.5006 3.89786 18.5092 3.42057 18.3708 2.9751C18.249 2.58354 18.0454 2.223 17.7737 1.9172C17.463 1.56749 17.0492 1.32863 16.5773 1.05631L16.482 1.00124L16.0105 0.728355L15.9128 0.671671C15.4446 0.399952 15.0327 0.160826 14.5776 0.0662236C14.1782 -0.0168 13.7665 -0.0128261 13.3697 0.0766329C12.9167 0.178773 12.5096 0.424319 12.0474 0.703043L11.9693 0.750122L11.8065 0.847678L11.6099 0.965882C11.5527 1.0003 11.5399 1.00783 11.5292 1.01377C11.397 1.08762 11.249 1.12872 11.0964 1.13364C11.0846 1.13402 11.0711 1.13413 11.0029 1.13413C10.9349 1.13413 10.9203 1.13402 10.9087 1.13364C10.7559 1.12871 10.6076 1.08742 10.475 1.01318C10.4681 1.00934 10.4631 1.00632 10.434 0.988763L10.3947 0.965008L10.0547 0.760003L9.95747 0.701285C9.9108 0.673059 9.86467 0.64517 9.81901 0.617731C9.40956 0.371701 9.0368 0.161891 8.62717 0.0695841ZM7.80521 1.93843C7.93954 1.91025 8.077 1.91127 8.20909 1.94104C8.32364 1.96685 8.45247 2.03102 9.07173 2.40441L9.41173 2.60941L9.43345 2.62254L9.47145 2.64546C9.49597 2.66017 9.52099 2.67492 9.54518 2.68847C9.94481 2.9122 10.391 3.03589 10.8473 3.05063C10.8936 3.05213 10.9407 3.05212 10.9924 3.05212H11.0134L11.0327 3.05212C11.0769 3.0521 11.1171 3.05194 11.1576 3.05063C11.6127 3.03596 12.058 2.91297 12.4572 2.69008C12.499 2.66674 12.5392 2.64254 12.5871 2.61372L12.9104 2.41935C12.9176 2.41524 12.9248 2.41103 12.932 2.40673C13.547 2.03687 13.6743 1.97368 13.788 1.94804L13.8059 1.94418C13.9333 1.91799 14.0641 1.91812 14.1905 1.9444C14.3051 1.96821 14.4341 2.02965 15.057 2.39017L15.5285 2.66306C16.1524 3.02414 16.2707 3.10618 16.3489 3.1942C16.4396 3.2963 16.5074 3.41642 16.5479 3.54672C16.5825 3.65799 16.5915 3.80002 16.5795 4.51847L16.5727 4.9263L16.572 5.08176C16.579 5.54133 16.6958 5.99213 16.9113 6.39631C16.9332 6.43733 16.9563 6.47748 16.9822 6.5225L16.9875 6.53169L17.0016 6.55638C17.021 6.59025 17.0443 6.63103 17.0656 6.66557C17.3066 7.05515 17.6365 7.38024 18.027 7.61519C18.0674 7.63953 18.1058 7.66122 18.1607 7.69188L18.5104 7.88726L18.522 7.89364C18.5769 7.92434 18.6279 7.95293 18.6752 7.97961C19.16 8.25282 19.2638 8.32515 19.3354 8.40312C19.4273 8.50317 19.497 8.62205 19.5398 8.75134C19.5766 8.86273 19.5884 9.00524 19.59 9.72597L19.5912 10.2766C19.5929 10.9945 19.5817 11.1365 19.5455 11.2469C19.5028 11.3773 19.4331 11.4963 19.3409 11.5968C19.2677 11.6766 19.1605 11.7506 18.6532 12.0351L18.5092 12.1155L18.1766 12.3006C17.7828 12.5364 17.3062 12.946 17.0647 13.3369C17.0416 13.3742 17.0203 13.4102 16.9866 13.4688L16.9812 13.478C16.9558 13.5223 16.9331 13.5617 16.9115 13.6021C16.7834 13.8421 16.6904 14.0983 16.6344 14.3626C16.5957 14.5452 16.5747 14.7317 16.5719 14.9194C16.5713 14.9647 16.5716 15.0071 16.5727 15.0724L16.5797 15.4939C16.5917 16.2056 16.5826 16.3465 16.5485 16.4566C16.5082 16.5866 16.4408 16.7065 16.3507 16.8084C16.2735 16.8956 16.157 16.9768 15.5387 17.3372L15.0661 17.6127C14.443 17.9759 14.3136 18.0379 14.1991 18.0619C14.0666 18.0897 13.9289 18.0887 13.795 18.0585C13.6803 18.0327 13.5518 17.9688 12.9329 17.5956L12.5667 17.3749C12.5323 17.3541 12.4964 17.3324 12.459 17.3115C12.0594 17.0878 11.6123 16.9638 11.156 16.9491C11.1096 16.9476 11.0638 16.9476 11.0116 16.9476H10.9906C10.9386 16.9476 10.8927 16.9476 10.8464 16.9491C10.3903 16.9638 9.9454 17.0877 9.54714 17.3101C9.50475 17.3337 9.46458 17.3578 9.41332 17.3887L9.07547 17.5918C8.4587 17.9627 8.33053 18.0264 8.21644 18.0522C8.08436 18.0819 7.94711 18.0831 7.8138 18.0554C7.69921 18.0316 7.5702 17.9702 6.94747 17.6098L6.47606 17.337C5.85136 16.9754 5.73334 16.8938 5.65528 16.8059C5.5647 16.704 5.49698 16.584 5.45641 16.4534C5.42134 16.3406 5.41171 16.1954 5.42385 15.4731L5.43047 15.0796C5.43148 15.0189 5.43232 14.9694 5.43145 14.9182C5.42608 14.6019 5.36912 14.2887 5.26259 13.9913C5.21752 13.8655 5.16357 13.7425 5.1009 13.6234C5.08019 13.584 5.05622 13.5421 5.03429 13.5038L5.0207 13.48L5.01513 13.4702C4.98747 13.4216 4.9631 13.3789 4.93698 13.3365C4.69744 12.9478 4.36895 12.6217 3.97882 12.3858C3.9398 12.3622 3.89754 12.3386 3.85737 12.3163L3.83483 12.3037L3.72729 12.2436L3.49268 12.1125C2.86583 11.7623 2.74765 11.683 2.66839 11.5967C2.57762 11.4978 2.50803 11.3793 2.46479 11.2485C2.42773 11.1364 2.41496 10.9913 2.41334 10.2738L2.41212 9.73473C2.41048 9.01062 2.42223 8.86558 2.45907 8.75311C2.50178 8.62272 2.57165 8.5033 2.66386 8.40282C2.74355 8.31598 2.86328 8.23595 3.49504 7.88433L3.84028 7.69218L3.86143 7.68043C3.8983 7.65997 3.93757 7.63818 3.97353 7.61665C4.28696 7.42894 4.56072 7.18342 4.78118 6.89399C4.83773 6.81975 4.89077 6.74261 4.94008 6.66283C4.9616 6.62801 4.98396 6.58894 5.00382 6.55426L5.01715 6.53102L5.02233 6.52201C5.04797 6.47744 5.07059 6.43813 5.09219 6.39767C5.3075 5.99438 5.42627 5.54285 5.43308 5.08053C5.43363 5.04328 5.43272 5.00971 5.4322 4.99058L5.4319 4.97966C5.43143 4.96275 5.43101 4.94782 5.43067 4.92755L5.42385 4.52031C5.41179 3.80041 5.42131 3.65601 5.45616 3.54352C5.4966 3.41302 5.564 3.29314 5.65385 3.19157C5.73091 3.10446 5.84724 3.02341 6.46507 2.66327L6.47544 2.65706L6.91766 2.39929C6.92461 2.39547 6.93153 2.39155 6.93839 2.38755C7.56172 2.02421 7.69057 1.96247 7.80521 1.93843Z" fill="#333333"/>
<path fill-rule="evenodd" clip-rule="evenodd" d="M11.002 5.20511C8.36526 5.20511 6.22777 7.35189 6.22777 10.0001C6.22777 11.7358 7.14603 13.2561 8.52127 14.0977C9.24422 14.5401 10.0935 14.795 11.002 14.795C11.7999 14.795 12.552 14.5984 13.2131 14.2509C14.1009 13.7841 14.8244 13.045 15.2736 12.144C15.5952 11.4988 15.7762 10.7707 15.7762 10.0001L15.7762 9.9854C15.7686 7.44015 13.7865 5.36154 11.2874 5.21354C11.1981 5.20825 11.1081 5.20543 11.0175 5.20514L11.002 5.20511ZM11.002 7.12309C9.41995 7.12309 8.13746 8.41116 8.13746 10.0001C8.13746 11.589 9.41995 12.877 11.002 12.877C12.584 12.877 13.8665 11.589 13.8665 10.0001C13.8665 9.94741 13.8651 9.89509 13.8623 9.84313C13.8087 8.84161 13.2451 7.97619 12.4277 7.50418C12.0078 7.26174 11.521 7.12309 11.002 7.12309Z" fill="#333333"/>
</g>
</svg>
